<?xml version="1.0" encoding="utf-8"?>
<!-- Generator: Adobe Illustrator 23.0.4, SVG Export Plug-In . SVG Version: 6.00 Build 0)  -->
<svg version="1.1" xmlns="http://www.w3.org/2000/svg" xmlns:xlink="http://www.w3.org/1999/xlink" x="0px" y="0px"
	 viewBox="0 0 512 512" style="enable-background:new 0 0 512 512;" xml:space="preserve">
<style type="text/css">
	.st0{display:none;}
	.st1{display:inline;}
</style>
<g id="Layer_1" class="st0">
	<path class="st1" d="M256,0C114.8,0,0,114.8,0,256s114.8,256,256,256s256-114.8,256-256S397.2,0,256,0z M368,277.3H144
		c-11.8,0-21.3-9.6-21.3-21.3s9.6-21.3,21.3-21.3h224c11.8,0,21.3,9.6,21.3,21.3S379.8,277.3,368,277.3z"/>
</g>
<g id="Layer_2">
	<g>
		<path d="M481.9,224.2H263.6c-16.6,0-30.1,13.5-30.1,30.1v3.1c0,16.6,13.5,30.1,30.1,30.1h218.4c16.6,0,30.1-13.5,30.1-30.1v-3.1
			C512,237.7,498.5,224.2,481.9,224.2z M490.9,257.4c0,5-4,9-9,9H263.6c-5,0-9-4-9-9v-3.1c0-5,4-9,9-9h218.4c5,0,9,4,9,9V257.4z"/>
		<path d="M363.4,438.4c-34,21.1-73.2,32.3-113.4,32.3c-118.5,0-214.9-96.4-214.9-214.9S131.6,40.9,250.1,40.9
			c40.2,0,79.4,11.2,113.4,32.3c8.2,5.1,19.1,2.6,24.2-5.6c5.1-8.2,2.6-19.1-5.6-24.2c-39.5-24.6-85.2-37.6-132-37.6
			c-33.8,0-66.5,6.6-97.3,19.7C122.9,38,96.2,56,73.2,79c-23,23-41,49.7-53.6,79.5C6.6,189.3,0,222.1,0,255.8s6.6,66.5,19.7,97.3
			c12.6,29.8,30.6,56.5,53.6,79.5c23,23,49.7,41,79.5,53.6c30.8,13,63.6,19.7,97.3,19.7c46.8,0,92.4-13,132-37.6
			c8.2-5.1,10.8-16,5.6-24.2C382.5,435.8,371.7,433.3,363.4,438.4z"/>
	</g>
</g>
</svg>
