<?xml version="1.0" encoding="utf-8"?>
<!-- Generator: Adobe Illustrator 23.0.4, SVG Export Plug-In . SVG Version: 6.00 Build 0)  -->
<svg version="1.1" xmlns="http://www.w3.org/2000/svg" xmlns:xlink="http://www.w3.org/1999/xlink" x="0px" y="0px"
	 viewBox="0 0 512 512" style="enable-background:new 0 0 512 512;" xml:space="preserve">
<style type="text/css">
	.st0{display:none;}
	.st1{display:inline;}
</style>
<g id="Layer_1" class="st0">
	<path class="st1" d="M256,0C114.8,0,0,114.8,0,256s114.8,256,256,256s256-114.8,256-256S397.2,0,256,0z M368,277.3h-90.7V368
		c0,11.8-9.6,21.3-21.3,21.3s-21.3-9.6-21.3-21.3v-90.7H144c-11.8,0-21.3-9.6-21.3-21.3s9.6-21.3,21.3-21.3h90.7V144
		c0-11.8,9.6-21.3,21.3-21.3s21.3,9.6,21.3,21.3v90.7H368c11.8,0,21.3,9.6,21.3,21.3S379.8,277.3,368,277.3z"/>
</g>
<g id="Layer_2">
	<g>
		<path d="M481.9,224.3h-77.5v-77.5c0-16.6-13.5-30.1-30.1-30.1h-3.1c-16.6,0-30.1,13.5-30.1,30.1v77.5h-77.5
			c-16.6,0-30.1,13.5-30.1,30.1v3.1c0,16.6,13.5,30.1,30.1,30.1h77.5V365c0,16.6,13.5,30.1,30.1,30.1h3.1
			c16.6,0,30.1-13.5,30.1-30.1v-77.5h77.5c16.6,0,30.1-13.5,30.1-30.1v-3.1C512,237.8,498.5,224.3,481.9,224.3z M490.9,257.5
			c0,5-4,9-9,9h-88c-5.8,0-10.5,4.7-10.5,10.5v88c0,5-4,9-9,9h-3.1c-5,0-9-4-9-9v-88c0-5.8-4.7-10.5-10.5-10.5h-88c-4.9,0-9-4-9-9
			v-3.1c0-5,4-9,9-9h88c5.8,0,10.5-4.7,10.5-10.5v-88c0-5,4-9,9-9h3.1c4.9,0,9,4,9,9v88c0,5.8,4.7,10.5,10.5,10.5h88c5,0,9,4,9,9
			V257.5z"/>
		<path d="M363.5,438.4c-33.9,21.1-73.1,32.3-113.3,32.3c-118.4,0-214.8-96.3-214.8-214.8S131.8,41.2,250.2,41.2
			c40.2,0,79.4,11.2,113.3,32.3c8.2,5.1,19.1,2.6,24.2-5.6c5.1-8.2,2.6-19.1-5.6-24.2C342.6,19,297,6,250.2,6
			c-33.7,0-66.5,6.6-97.3,19.6c-29.8,12.6-56.5,30.6-79.4,53.6c-22.9,22.9-41,49.7-53.6,79.4c-13,30.8-19.6,63.6-19.6,97.3
			s6.6,66.5,19.6,97.3c12.6,29.8,30.6,56.5,53.6,79.4c22.9,22.9,49.7,41,79.4,53.6c30.8,13,63.6,19.6,97.3,19.6
			c46.8,0,92.4-13,131.9-37.6c8.2-5.1,10.8-16,5.6-24.2C382.6,435.8,371.8,433.3,363.5,438.4z"/>
	</g>
</g>
</svg>
